<svg width="61" height="62" viewBox="0 0 61 62" fill="none" xmlns="http://www.w3.org/2000/svg">
<mask id="path-1-inside-1" fill="white">
<path d="M8.00002 21.45C7.56372 21.45 7.21002 21.0963 7.21002 20.66V18.13C7.21002 12.6072 11.6872 8.13 17.21 8.13H19.74C20.1447 8.17547 20.4507 8.51773 20.4507 8.925C20.4507 9.33228 20.1447 9.67454 19.74 9.72001H17.13C12.5042 9.72552 8.75553 13.4741 8.75002 18.1V20.63C8.767 21.0627 8.4325 21.4284 8.00002 21.45Z"/>
</mask>
<path d="M8.00002 21.45V24.45H8.07486L8.14961 24.4463L8.00002 21.45ZM19.74 8.13L20.0749 5.14875L19.908 5.13H19.74V8.13ZM19.74 9.72001V12.72H19.908L20.0749 12.7013L19.74 9.72001ZM17.13 9.72001L17.13 6.72L17.1264 6.72001L17.13 9.72001ZM8.75002 18.1L5.75002 18.0964V18.1H8.75002ZM8.75002 20.63H5.75002V20.6889L5.75233 20.7477L8.75002 20.63ZM8.00002 18.45C9.22058 18.45 10.21 19.4395 10.21 20.66H4.21002C4.21002 22.7532 5.90686 24.45 8.00002 24.45V18.45ZM10.21 20.66V18.13H4.21002V20.66H10.21ZM10.21 18.13C10.21 14.264 13.344 11.13 17.21 11.13V5.13C10.0303 5.13 4.21002 10.9503 4.21002 18.13H10.21ZM17.21 11.13H19.74V5.13H17.21V11.13ZM19.4051 11.1113C18.2921 10.9862 17.4507 10.045 17.4507 8.925H23.4507C23.4507 6.99047 21.9974 5.3647 20.0749 5.14875L19.4051 11.1113ZM17.4507 8.925C17.4507 7.80501 18.2921 6.86378 19.4051 6.73876L20.0749 12.7013C21.9974 12.4853 23.4507 10.8595 23.4507 8.925H17.4507ZM19.74 6.72001H17.13V12.72H19.74V6.72001ZM17.1264 6.72001C10.8465 6.72749 5.7575 11.8165 5.75002 18.0964L11.75 18.1036C11.7536 15.1318 14.1618 12.7235 17.1336 12.72L17.1264 6.72001ZM5.75002 18.1V20.63H11.75V18.1H5.75002ZM5.75233 20.7477C5.70482 19.5372 6.64057 18.5141 7.85043 18.4537L8.14961 24.4463C10.2244 24.3427 11.8292 22.5881 11.7477 20.5123L5.75233 20.7477Z" fill="white" mask="url(#path-1-inside-1)"/>
<mask id="path-3-inside-2" fill="white">
<path d="M52.05 21.45C51.8387 21.4527 51.6352 21.3706 51.4849 21.2222C51.3346 21.0737 51.25 20.8713 51.25 20.66V18.13C51.2445 13.5041 47.4958 9.75551 42.87 9.75H40.34C39.9352 9.70454 39.6293 9.36228 39.6293 8.955C39.6293 8.54773 39.9352 8.20547 40.34 8.16H42.87C48.3928 8.16 52.87 12.6372 52.87 18.16V20.69C52.8622 20.8996 52.7713 21.0974 52.6175 21.24C52.4637 21.3826 52.2595 21.4581 52.05 21.45Z"/>
</mask>
<path d="M52.05 21.45L52.166 18.4522L52.089 18.4493L52.012 18.4502L52.05 21.45ZM51.4849 21.2222L53.5928 19.0876L53.5928 19.0876L51.4849 21.2222ZM51.25 20.66L54.25 20.6602V20.66H51.25ZM51.25 18.13L54.25 18.13L54.25 18.1264L51.25 18.13ZM42.87 9.75L42.8735 6.75H42.87V9.75ZM40.34 9.75L40.0051 12.7313L40.172 12.75H40.34V9.75ZM40.34 8.16V5.16H40.172L40.0051 5.17875L40.34 8.16ZM52.87 20.69L55.8679 20.8017L55.87 20.7459V20.69H52.87ZM52.6175 21.24L54.6568 23.4403L54.6568 23.4403L52.6175 21.24ZM52.012 18.4502C52.603 18.4428 53.1723 18.6723 53.5928 19.0876L49.3769 23.3568C50.0981 24.069 51.0745 24.4626 52.0879 24.4498L52.012 18.4502ZM53.5928 19.0876C54.0133 19.5028 54.25 20.0692 54.25 20.6602L48.25 20.6598C48.2499 21.6733 48.6558 22.6446 49.3769 23.3568L53.5928 19.0876ZM54.25 20.66V18.13H48.25V20.66H54.25ZM54.25 18.1264C54.2425 11.8465 49.1535 6.75749 42.8735 6.75001L42.8664 12.75C45.8382 12.7535 48.2464 15.1618 48.25 18.1336L54.25 18.1264ZM42.87 6.75H40.34V12.75H42.87V6.75ZM40.6749 6.76875C41.7879 6.89378 42.6293 7.83501 42.6293 8.955H36.6293C36.6293 10.8895 38.0826 12.5153 40.0051 12.7313L40.6749 6.76875ZM42.6293 8.955C42.6293 10.075 41.7879 11.0162 40.6749 11.1413L40.0051 5.17875C38.0826 5.3947 36.6293 7.02047 36.6293 8.955H42.6293ZM40.34 11.16H42.87V5.16H40.34V11.16ZM42.87 11.16C46.736 11.16 49.87 14.294 49.87 18.16H55.87C55.87 10.9803 50.0497 5.16 42.87 5.16V11.16ZM49.87 18.16V20.69H55.87V18.16H49.87ZM49.872 20.5783C49.8939 19.9921 50.1479 19.4385 50.5782 19.0397L54.6568 23.4403C55.3947 22.7564 55.8304 21.8071 55.8679 20.8017L49.872 20.5783ZM50.5782 19.0397C51.0085 18.6409 51.5797 18.4296 52.166 18.4522L51.934 24.4478C52.9393 24.4867 53.9189 24.1242 54.6568 23.4403L50.5782 19.0397Z" fill="white" mask="url(#path-3-inside-2)"/>
<mask id="path-5-inside-3" fill="white">
<path d="M42.87 53.84H40.33C40.0247 53.8743 39.7267 53.7307 39.5632 53.4706C39.3998 53.2104 39.3998 52.8796 39.5632 52.6194C39.7267 52.3593 40.0247 52.2157 40.33 52.25H42.87C47.4958 52.2445 51.2445 48.4959 51.25 43.87V41.34C51.2954 40.9353 51.6377 40.6293 52.045 40.6293C52.4522 40.6293 52.7945 40.9353 52.84 41.34V43.87C52.8235 49.3694 48.3694 53.8235 42.87 53.84Z"/>
</mask>
<path d="M42.87 53.84L42.87 56.84L42.879 56.84L42.87 53.84ZM40.33 53.84V50.84H40.162L39.9951 50.8588L40.33 53.84ZM39.5632 53.4706L37.0229 55.0664L37.0229 55.0664L39.5632 53.4706ZM39.5632 52.6194L37.0229 51.0236L37.0229 51.0236L39.5632 52.6194ZM40.33 52.25L39.9951 55.2313L40.162 55.25H40.33V52.25ZM42.87 52.25L42.87 55.25L42.8735 55.25L42.87 52.25ZM51.25 43.87L54.25 43.8736V43.87H51.25ZM51.25 41.34L48.2687 41.0051L48.25 41.172V41.34H51.25ZM52.84 41.34H55.84V41.172L55.8212 41.0051L52.84 41.34ZM52.84 43.87L55.84 43.879V43.87H52.84ZM42.87 50.84H40.33V56.84H42.87V50.84ZM39.9951 50.8588C40.8347 50.7644 41.6542 51.1593 42.1036 51.8747L37.0229 55.0664C37.7992 56.3021 39.2146 56.9842 40.6649 56.8213L39.9951 50.8588ZM42.1036 51.8747C42.553 52.5902 42.553 53.4998 42.1036 54.2153L37.0229 51.0236C36.2466 52.2594 36.2466 53.8306 37.0229 55.0664L42.1036 51.8747ZM42.1036 54.2153C41.6542 54.9307 40.8347 55.3256 39.9951 55.2313L40.6649 49.2687C39.2146 49.1058 37.7992 49.7879 37.0229 51.0236L42.1036 54.2153ZM40.33 55.25H42.87V49.25H40.33V55.25ZM42.8735 55.25C49.1535 55.2425 54.2425 50.1535 54.25 43.8736L48.25 43.8664C48.2464 46.8382 45.8382 49.2465 42.8664 49.25L42.8735 55.25ZM54.25 43.87V41.34H48.25V43.87H54.25ZM54.2312 41.6749C54.1062 42.7879 53.165 43.6293 52.045 43.6293V37.6293C50.1104 37.6293 48.4847 39.0827 48.2687 41.0051L54.2312 41.6749ZM52.045 43.6293C50.925 43.6293 49.9838 42.7879 49.8587 41.6749L55.8212 41.0051C55.6053 39.0827 53.9795 37.6293 52.045 37.6293V43.6293ZM49.84 41.34V43.87H55.84V41.34H49.84ZM49.84 43.861C49.8285 47.7106 46.7106 50.8285 42.861 50.84L42.879 56.84C50.0282 56.8186 55.8185 51.0283 55.84 43.879L49.84 43.861Z" fill="white" mask="url(#path-5-inside-3)"/>
<path d="M19.7293 53.045L19.67 53.5729V53.0823V53.0077V52.5171V52.3475C19.7152 52.3436 19.7612 52.3442 19.8074 52.3494L19.7293 53.045Z" stroke="white" stroke-width="3"/>
<mask id="path-8-inside-4" fill="white">
<path d="M30 61.23C25.6159 61.2024 22.0817 57.631 22.1 53.2469C22.1184 48.8628 25.6824 45.321 30.0665 45.3302C34.4507 45.3393 38 48.8959 38 53.28C37.9725 57.6787 34.3988 61.23 30 61.23ZM30 46.92C26.4875 46.92 23.64 49.7675 23.64 53.28C23.64 56.7925 26.4875 59.64 30 59.64C33.5125 59.64 36.36 56.7925 36.36 53.28C36.36 49.7675 33.5125 46.92 30 46.92Z"/>
</mask>
<path d="M30 61.23L29.9811 64.2299L29.9906 64.23H30V61.23ZM22.1 53.2469L19.1 53.2343L19.1 53.2344L22.1 53.2469ZM30.0665 45.3302L30.0728 42.3302L30.0728 42.3302L30.0665 45.3302ZM38 53.28L40.9999 53.2987L41 53.2894V53.28H38ZM30.0189 58.2301C27.2892 58.2129 25.0886 55.9892 25.1 53.2594L19.1 53.2344C19.0748 59.2728 23.9427 64.192 29.9811 64.2299L30.0189 58.2301ZM25.1 53.2595C25.1114 50.5297 27.3306 48.3245 30.0603 48.3302L30.0728 42.3302C24.0343 42.3176 19.1254 47.1958 19.1 53.2343L25.1 53.2595ZM30.0603 48.3302C32.7901 48.3358 35 50.5504 35 53.28H41C41 47.2414 36.1113 42.3428 30.0728 42.3302L30.0603 48.3302ZM35 53.2612C34.9829 56.0104 32.7494 58.23 30 58.23V64.23C36.0483 64.23 40.9621 59.3471 40.9999 53.2987L35 53.2612ZM30 43.92C24.8306 43.92 20.64 48.1106 20.64 53.28H26.64C26.64 51.4243 28.1443 49.92 30 49.92V43.92ZM20.64 53.28C20.64 58.4494 24.8306 62.64 30 62.64V56.64C28.1443 56.64 26.64 55.1357 26.64 53.28H20.64ZM30 62.64C35.1694 62.64 39.36 58.4494 39.36 53.28H33.36C33.36 55.1357 31.8557 56.64 30 56.64V62.64ZM39.36 53.28C39.36 48.1106 35.1694 43.92 30 43.92V49.92C31.8557 49.92 33.36 51.4243 33.36 53.28H39.36Z" fill="white" mask="url(#path-8-inside-4)"/>
<mask id="path-10-inside-5" fill="white">
<path d="M30 16.91C25.5817 16.91 22 13.3283 22 8.91C22 4.49173 25.5817 0.910004 30 0.910004C34.4183 0.910004 38 4.49173 38 8.91C38 11.0317 37.1571 13.0666 35.6569 14.5669C34.1566 16.0671 32.1217 16.91 30 16.91ZM30 2.59C26.4859 2.58456 23.6311 5.42596 23.6201 8.94008C23.6092 12.4542 26.4461 15.3134 29.9602 15.33C33.4743 15.3465 36.3379 12.5141 36.3601 9C36.3706 7.30539 35.7056 5.67638 34.512 4.4734C33.3184 3.27041 31.6946 2.59263 30 2.59Z"/>
</mask>
<path d="M35.6569 14.5669L33.5355 12.4455L33.5355 12.4455L35.6569 14.5669ZM30 2.59L30.0047 -0.410001L30.0046 -0.410001L30 2.59ZM23.6201 8.94008L20.6201 8.93067L20.6201 8.93072L23.6201 8.94008ZM29.9602 15.33L29.946 18.33L29.9461 18.33L29.9602 15.33ZM36.3601 9L39.3601 9.01895L39.3601 9.01862L36.3601 9ZM34.512 4.4734L32.3824 6.58639L32.3824 6.58639L34.512 4.4734ZM30 13.91C27.2386 13.91 25 11.6714 25 8.91H19C19 14.9851 23.9249 19.91 30 19.91V13.91ZM25 8.91C25 6.14858 27.2386 3.91 30 3.91V-2.09C23.9249 -2.09 19 2.83487 19 8.91H25ZM30 3.91C32.7614 3.91 35 6.14858 35 8.91H41C41 2.83487 36.0751 -2.09 30 -2.09V3.91ZM35 8.91C35 10.2361 34.4732 11.5079 33.5355 12.4455L37.7782 16.6882C39.8411 14.6253 41 11.8274 41 8.91H35ZM33.5355 12.4455C32.5979 13.3832 31.3261 13.91 30 13.91V19.91C32.9174 19.91 35.7153 18.7511 37.7782 16.6882L33.5355 12.4455ZM30.0046 -0.410001C24.8355 -0.418002 20.6364 3.76158 20.6201 8.93067L26.6201 8.94949C26.6259 7.09034 28.1362 5.58711 29.9954 5.58999L30.0046 -0.410001ZM20.6201 8.93072C20.604 14.0998 24.777 18.3055 29.946 18.33L29.9743 12.33C28.1152 12.3212 26.6143 10.8086 26.6201 8.94943L20.6201 8.93072ZM29.9461 18.33C35.1152 18.3542 39.3274 14.1879 39.3601 9.01895L33.3602 8.98105C33.3484 10.8402 31.8334 12.3387 29.9742 12.33L29.9461 18.33ZM39.3601 9.01862C39.3755 6.52607 38.3973 4.12994 36.6416 2.3604L32.3824 6.58639C33.0138 7.22282 33.3657 8.0847 33.3602 8.98138L39.3601 9.01862ZM36.6416 2.3604C34.8859 0.590862 32.4974 -0.406125 30.0047 -0.410001L29.9953 5.58999C30.8919 5.59139 31.7509 5.94997 32.3824 6.58639L36.6416 2.3604Z" fill="white" mask="url(#path-10-inside-5)"/>
<mask id="path-12-inside-6" fill="white">
<path d="M8 39C3.58172 39 0 35.4183 0 31C0 26.5817 3.58172 23 8 23C12.4183 23 16 26.5817 16 31C16 33.1217 15.1571 35.1566 13.6569 36.6569C12.1566 38.1571 10.1217 39 8 39ZM8 24.6399C5.42404 24.6238 3.09271 26.163 2.09568 28.5383C1.09866 30.9135 1.63288 33.6556 3.44864 35.4829C5.26439 37.3101 8.00305 37.8616 10.3845 36.8796C12.766 35.8976 14.32 33.576 14.32 31C14.3146 27.5053 11.4946 24.6674 8 24.6399Z"/>
</mask>
<path d="M13.6569 36.6569L11.5355 34.5355L11.5355 34.5355L13.6569 36.6569ZM8 24.6399L8.02365 21.64L8.01872 21.6399L8 24.6399ZM14.32 31L17.32 31L17.32 30.9954L14.32 31ZM8 36C5.23858 36 3 33.7614 3 31H-3C-3 37.0751 1.92487 42 8 42V36ZM3 31C3 28.2386 5.23858 26 8 26V20C1.92487 20 -3 24.9249 -3 31H3ZM8 26C10.7614 26 13 28.2386 13 31H19C19 24.9249 14.0751 20 8 20V26ZM13 31C13 32.3261 12.4732 33.5979 11.5355 34.5355L15.7782 38.7782C17.8411 36.7153 19 33.9174 19 31H13ZM11.5355 34.5355C10.5979 35.4732 9.32608 36 8 36V42C10.9174 42 13.7153 40.8411 15.7782 38.7782L11.5355 34.5355ZM8.01872 21.6399C4.22781 21.6163 0.796819 23.8815 -0.670502 27.3772L4.86187 29.6994C5.3886 28.4446 6.62028 27.6313 7.98128 27.6398L8.01872 21.6399ZM-0.670502 27.3772C-2.13782 30.8728 -1.35161 34.9083 1.32063 37.5975L5.57664 33.3682C4.61737 32.4029 4.33514 30.9543 4.86187 29.6994L-0.670502 27.3772ZM1.32063 37.5975C3.99288 40.2866 8.02336 41.0983 11.5282 39.6531L9.24089 34.1061C7.98275 34.6249 6.53591 34.3336 5.57664 33.3682L1.32063 37.5975ZM11.5282 39.6531C15.033 38.2078 17.32 34.7912 17.32 31H11.32C11.32 32.3608 10.4991 33.5873 9.24089 34.1061L11.5282 39.6531ZM17.32 30.9954C17.3121 25.8548 13.164 21.6805 8.02365 21.64L7.97635 27.6398C9.82525 27.6544 11.3172 29.1558 11.32 31.0046L17.32 30.9954Z" fill="white" mask="url(#path-12-inside-6)"/>
<mask id="path-14-inside-7" fill="white">
<path d="M52.05 39C47.6317 39 44.05 35.4183 44.05 31C44.05 26.5817 47.6317 23 52.05 23C56.4683 23 60.05 26.5817 60.05 31C60.05 33.1217 59.2071 35.1566 57.7068 36.6569C56.2066 38.1571 54.1717 39 52.05 39ZM52.05 24.69C49.4731 24.6901 47.1509 26.2451 46.1695 28.6278C45.1881 31.0105 45.7414 33.75 47.5708 35.5649C49.4001 37.3799 52.1438 37.9116 54.5187 36.9114C56.8936 35.9112 58.4302 33.5768 58.41 31C58.4045 27.4898 55.5602 24.6455 52.05 24.64V24.69Z"/>
</mask>
<path d="M57.7068 36.6569L55.5855 34.5355L55.5855 34.5355L57.7068 36.6569ZM52.05 24.69L52.0501 27.69L55.05 27.6899V24.69H52.05ZM58.41 31L55.41 31.0047L55.41 31.0141L55.4101 31.0236L58.41 31ZM52.05 24.64L52.0547 21.64L49.05 21.6353V24.64H52.05ZM52.05 36C49.2886 36 47.05 33.7614 47.05 31H41.05C41.05 37.0751 45.9749 42 52.05 42V36ZM47.05 31C47.05 28.2386 49.2886 26 52.05 26V20C45.9749 20 41.05 24.9249 41.05 31H47.05ZM52.05 26C54.8114 26 57.05 28.2386 57.05 31H63.05C63.05 24.9249 58.1251 20 52.05 20V26ZM57.05 31C57.05 32.3261 56.5232 33.5979 55.5855 34.5355L59.8282 38.7782C61.8911 36.7153 63.05 33.9174 63.05 31H57.05ZM55.5855 34.5355C54.6478 35.4732 53.3761 36 52.05 36V42C54.9674 42 57.7653 40.8411 59.8282 38.7782L55.5855 34.5355ZM52.0499 21.69C48.2575 21.6901 44.8399 23.9787 43.3956 27.4853L48.9434 29.7704C49.4619 28.5116 50.6887 27.69 52.0501 27.69L52.0499 21.69ZM43.3956 27.4853C41.9512 30.9919 42.7656 35.0235 45.4578 37.6946L49.6837 33.4352C48.7173 32.4764 48.4249 31.0292 48.9434 29.7704L43.3956 27.4853ZM45.4578 37.6946C48.1501 40.3656 52.188 41.1482 55.6831 39.6762L53.3543 34.1466C52.0996 34.675 50.6501 34.3941 49.6837 33.4352L45.4578 37.6946ZM55.6831 39.6762C59.1782 38.2043 61.4397 34.7687 61.4099 30.9764L55.4101 31.0236C55.4208 32.3849 54.609 33.6182 53.3543 34.1466L55.6831 39.6762ZM61.41 30.9953C61.4019 25.8319 57.2181 21.6481 52.0547 21.64L52.0453 27.64C53.9024 27.6429 55.4071 29.1476 55.41 31.0047L61.41 30.9953ZM49.05 24.64V24.69H55.05V24.64H49.05Z" fill="white" mask="url(#path-14-inside-7)"/>
</svg>
