<svg width="61" height="61" viewBox="0 0 61 61" fill="none" xmlns="http://www.w3.org/2000/svg">
<mask id="path-1-inside-1" fill="white">
<path d="M8.00002 20.54C7.7905 20.54 7.58956 20.4568 7.44141 20.3086C7.29325 20.1605 7.21002 19.9596 7.21002 19.75V17.22C7.21002 14.5679 8.26359 12.0243 10.139 10.149C12.0143 8.2736 14.5579 7.22003 17.21 7.22003H19.74C19.9355 7.24199 20.116 7.3352 20.2471 7.48185C20.3782 7.62851 20.4507 7.81832 20.4507 8.01503C20.4507 8.21174 20.3782 8.40156 20.2471 8.54821C20.116 8.69486 19.9355 8.78807 19.74 8.81003H17.13C14.9083 8.81268 12.7784 9.69642 11.2074 11.2674C9.63641 12.8384 8.75267 14.9683 8.75002 17.19V19.72C8.75818 19.9279 8.684 20.1307 8.54357 20.2842C8.40315 20.4377 8.20783 20.5297 8.00002 20.54V20.54Z"/>
</mask>
<path d="M7.21002 17.22H5.21002H7.21002ZM17.21 7.22003V5.22003V7.22003ZM19.74 7.22003L19.9633 5.23253L19.852 5.22003H19.74V7.22003ZM19.74 8.81003V10.81H19.852L19.9633 10.7975L19.74 8.81003ZM17.13 8.81003L17.13 6.81003L17.1276 6.81003L17.13 8.81003ZM8.75002 17.19L6.75002 17.1876V17.19H8.75002ZM8.75002 19.72H6.75002V19.7593L6.75156 19.7985L8.75002 19.72ZM8.00002 18.54C8.32094 18.54 8.6287 18.6675 8.85562 18.8944L6.02719 21.7229C6.55042 22.2461 7.26006 22.54 8.00002 22.54V18.54ZM8.85562 18.8944C9.08254 19.1214 9.21002 19.4291 9.21002 19.75H5.21002C5.21002 20.49 5.50397 21.1996 6.02719 21.7229L8.85562 18.8944ZM9.21002 19.75V17.22H5.21002V19.75H9.21002ZM9.21002 17.22C9.21002 15.0983 10.0529 13.0635 11.5532 11.5632L8.72474 8.73475C6.4743 10.9852 5.21002 14.0374 5.21002 17.22H9.21002ZM11.5532 11.5632C13.0535 10.0629 15.0883 9.22003 17.21 9.22003V5.22003C14.0274 5.22003 10.9752 6.48431 8.72474 8.73475L11.5532 11.5632ZM17.21 9.22003H19.74V5.22003H17.21V9.22003ZM19.5168 9.20753C19.2235 9.17459 18.9527 9.03478 18.7561 8.8148L21.7382 6.14891C21.2793 5.63562 20.6475 5.30939 19.9633 5.23253L19.5168 9.20753ZM18.7561 8.8148C18.5594 8.59482 18.4507 8.3101 18.4507 8.01503H22.4507C22.4507 7.32654 22.1971 6.66219 21.7382 6.14891L18.7561 8.8148ZM18.4507 8.01503C18.4507 7.71996 18.5594 7.43524 18.7561 7.21527L21.7382 9.88116C22.1971 9.36787 22.4507 8.70352 22.4507 8.01503H18.4507ZM18.7561 7.21527C18.9527 6.99529 19.2235 6.85547 19.5168 6.82253L19.9633 10.7975C20.6475 10.7207 21.2793 10.3944 21.7382 9.88116L18.7561 7.21527ZM19.74 6.81003H17.13V10.81H19.74V6.81003ZM17.1276 6.81003C14.3763 6.81331 11.7386 7.90772 9.79318 9.85319L12.6216 12.6816C13.8181 11.4851 15.4403 10.812 17.1324 10.81L17.1276 6.81003ZM9.79318 9.85319C7.84771 11.7987 6.7533 14.4363 6.75002 17.1876L10.75 17.1924C10.752 15.5003 11.4251 13.8781 12.6216 12.6816L9.79318 9.85319ZM6.75002 17.19V19.72H10.75V17.19H6.75002ZM6.75156 19.7985C6.73906 19.48 6.85269 19.1695 7.06777 18.9344L10.0194 21.634C10.5153 21.0918 10.7773 20.3758 10.7485 19.6416L6.75156 19.7985ZM7.06777 18.9344C7.28284 18.6992 7.582 18.5584 7.90029 18.5425L8.09975 22.5375C8.83365 22.5009 9.52345 22.1762 10.0194 21.634L7.06777 18.9344Z" fill="#E60000" mask="url(#path-1-inside-1)"/>
<path d="M52.063 19.5413C52.0716 19.5423 52.0801 19.5437 52.0885 19.5457L52.0849 19.6388L52.0822 19.7073L52.0812 19.7328L52.0806 19.75L52.0806 19.7501L52.0805 19.7506L52.0664 19.7501L52.0647 19.75L52.0422 19.7492L52.0409 19.7491L52.0404 19.7491L52.04 19.7491L52.0398 19.7319L52.0394 19.7062L52.0386 19.6371L52.0374 19.5451C52.0458 19.5433 52.0544 19.542 52.063 19.5413ZM52.05 20.54L52.0404 19.78H52.0794L52.05 20.54Z" stroke="#E60000" stroke-width="2"/>
<mask id="path-4-inside-2" fill="white">
<path d="M42.87 52.93H40.33C40.2181 52.9426 40.1048 52.9314 39.9976 52.8972C39.8903 52.8629 39.7915 52.8065 39.7075 52.7314C39.6236 52.6564 39.5564 52.5645 39.5105 52.4617C39.4645 52.3589 39.4407 52.2476 39.4407 52.135C39.4407 52.0224 39.4645 51.9111 39.5105 51.8083C39.5564 51.7055 39.6236 51.6136 39.7075 51.5386C39.7915 51.4635 39.8903 51.4071 39.9976 51.3728C40.1048 51.3386 40.2181 51.3274 40.33 51.34H42.87C45.0917 51.3373 47.2217 50.4536 48.7926 48.8826C50.3636 47.3116 51.2474 45.1817 51.25 42.96V40.43C51.272 40.2345 51.3652 40.054 51.5118 39.9229C51.6585 39.7918 51.8483 39.7193 52.045 39.7193C52.2417 39.7193 52.4315 39.7918 52.5782 39.9229C52.7248 40.054 52.818 40.2345 52.84 40.43V42.96C52.8321 45.6018 51.7791 48.1331 49.9111 50.0011C48.0431 51.8691 45.5118 52.9221 42.87 52.93Z"/>
</mask>
<path d="M42.87 52.93L42.87 54.93L42.876 54.93L42.87 52.93ZM40.33 52.93V50.93H40.218L40.1068 50.9425L40.33 52.93ZM39.4407 52.135L41.4407 52.135L39.4407 52.135ZM40.33 51.34L40.1068 53.3275L40.218 53.34H40.33V51.34ZM42.87 51.34L42.87 53.34L42.8724 53.34L42.87 51.34ZM51.25 42.96L53.25 42.9624V42.96H51.25ZM51.25 40.43L49.2625 40.2067L49.25 40.318V40.43H51.25ZM52.045 39.7193L52.045 37.7193L52.045 39.7193ZM52.84 40.43H54.84V40.318L54.8275 40.2067L52.84 40.43ZM52.84 42.96L54.84 42.966V42.96H52.84ZM42.87 50.93H40.33V54.93H42.87V50.93ZM40.1068 50.9425C40.2746 50.9236 40.4445 50.9404 40.6054 50.9918L39.3897 54.8026C39.7652 54.9223 40.1617 54.9615 40.5533 54.9175L40.1068 50.9425ZM40.6054 50.9918C40.7663 51.0431 40.9146 51.1278 41.0405 51.2404L38.3746 54.2225C38.6684 54.4851 39.0143 54.6828 39.3897 54.8026L40.6054 50.9918ZM41.0405 51.2404C41.1664 51.3529 41.2671 51.4908 41.3361 51.645L37.6848 53.2784C37.8457 53.6381 38.0808 53.9598 38.3746 54.2225L41.0405 51.2404ZM41.3361 51.645C41.405 51.7991 41.4407 51.9661 41.4407 52.135L37.4407 52.135C37.4407 52.5291 37.5239 52.9187 37.6848 53.2784L41.3361 51.645ZM41.4407 52.135C41.4407 52.3039 41.405 52.4709 41.3361 52.625L37.6848 50.9916C37.5239 51.3513 37.4407 51.7409 37.4407 52.135L41.4407 52.135ZM41.3361 52.625C41.2671 52.7792 41.1664 52.9171 41.0405 53.0296L38.3746 50.0475C38.0808 50.3102 37.8457 50.6319 37.6848 50.9916L41.3361 52.625ZM41.0405 53.0296C40.9146 53.1422 40.7663 53.2269 40.6054 53.2782L39.3897 49.4674C39.0143 49.5872 38.6684 49.7849 38.3746 50.0475L41.0405 53.0296ZM40.6054 53.2782C40.4445 53.3296 40.2746 53.3463 40.1068 53.3275L40.5533 49.3525C40.1617 49.3085 39.7652 49.3477 39.3897 49.4674L40.6054 53.2782ZM40.33 53.34H42.87V49.34H40.33V53.34ZM42.8724 53.34C45.6237 53.3367 48.2614 52.2423 50.2069 50.2968L47.3784 47.4684C46.1819 48.6649 44.5597 49.338 42.8676 49.34L42.8724 53.34ZM50.2069 50.2968C52.1523 48.3514 53.2467 45.7137 53.25 42.9624L49.25 42.9576C49.248 44.6497 48.5749 46.2719 47.3784 47.4684L50.2069 50.2968ZM53.25 42.96V40.43H49.25V42.96H53.25ZM53.2375 40.6533C53.2046 40.9465 53.0648 41.2173 52.8448 41.4139L50.1789 38.4318C49.6656 38.8907 49.3394 39.5226 49.2625 40.2067L53.2375 40.6533ZM52.8448 41.4139C52.6248 41.6106 52.3401 41.7193 52.045 41.7193L52.045 37.7193C51.3565 37.7193 50.6922 37.973 50.1789 38.4318L52.8448 41.4139ZM52.045 41.7193C51.75 41.7193 51.4652 41.6106 51.2452 41.4139L53.9111 38.4318C53.3978 37.9729 52.7335 37.7193 52.045 37.7193L52.045 41.7193ZM51.2452 41.4139C51.0253 41.2173 50.8854 40.9465 50.8525 40.6533L54.8275 40.2067C54.7507 39.5226 54.4244 38.8907 53.9111 38.4318L51.2452 41.4139ZM50.84 40.43V42.96H54.84V40.43H50.84ZM50.84 42.954C50.8337 45.0674 49.9913 47.0925 48.4969 48.5869L51.3253 51.4153C53.567 49.1737 54.8305 46.1361 54.84 42.966L50.84 42.954ZM48.4969 48.5869C47.0025 50.0813 44.9774 50.9237 42.864 50.93L42.876 54.93C46.0461 54.9205 49.0837 53.657 51.3253 51.4153L48.4969 48.5869Z" fill="#E60000" mask="url(#path-4-inside-2)"/>
<path d="M19.7064 52.3388L19.67 52.6629V52.34H19.696L19.7064 52.3388ZM19.707 52.3337C19.6945 52.3323 19.6821 52.3298 19.67 52.326V52.3209V52.2013V52.1615V52.135V52.1085V52.0687V51.9491V51.944C19.6821 51.9402 19.6945 51.9377 19.707 51.9362C19.7218 51.9346 19.7368 51.9346 19.7516 51.9362L19.7293 52.135L19.707 52.3337Z" stroke="#E60000" stroke-width="2"/>
<mask id="path-7-inside-3" fill="white">
<path d="M30 60.32C28.4298 60.3101 26.8977 59.8355 25.5969 58.956C24.2962 58.0764 23.285 56.8314 22.6909 55.3779C22.0969 53.9243 21.9465 52.3275 22.2589 50.7886C22.5713 49.2498 23.3324 47.8379 24.4462 46.7311C25.56 45.6242 26.9766 44.872 28.5173 44.5693C30.0581 44.2666 31.654 44.4269 33.1038 45.0301C34.5535 45.6332 35.7922 46.6522 36.6636 47.9585C37.535 49.2647 38 50.7998 38 52.37C37.9868 54.4831 37.1381 56.5051 35.6393 57.9946C34.1404 59.4841 32.1131 60.3201 30 60.32ZM30 46.01C28.7421 46.01 27.5125 46.383 26.4666 47.0819C25.4207 47.7807 24.6055 48.774 24.1241 49.9361C23.6428 51.0983 23.5168 52.3771 23.7622 53.6108C24.0076 54.8445 24.6133 55.9777 25.5028 56.8672C26.3923 57.7567 27.5255 58.3624 28.7592 58.6078C29.993 58.8532 31.2717 58.7273 32.4339 58.2459C33.596 57.7645 34.5893 56.9493 35.2882 55.9034C35.987 54.8575 36.36 53.6279 36.36 52.37C36.36 50.6832 35.6899 49.0655 34.4972 47.8728C33.3045 46.6801 31.6868 46.01 30 46.01V46.01Z"/>
</mask>
<path d="M30 60.32L29.9874 62.32L30 62.32L30 60.32ZM38 52.37L40 52.3825L40 52.37L38 52.37ZM36.36 52.37L34.36 52.37L36.36 52.37ZM30.0126 58.3201C28.8374 58.3127 27.6907 57.9574 26.7172 57.2992L24.4767 60.6128C26.1047 61.7136 28.0222 62.3076 29.9874 62.32L30.0126 58.3201ZM26.7172 57.2992C25.7437 56.6409 24.9869 55.7091 24.5423 54.6212L20.8396 56.1345C21.5831 57.9537 22.8486 59.512 24.4767 60.6128L26.7172 57.2992ZM24.5423 54.6212C24.0976 53.5334 23.9851 52.3382 24.2189 51.1865L20.2989 50.3907C19.9079 52.3167 20.0961 54.3153 20.8396 56.1345L24.5423 54.6212ZM24.2189 51.1865C24.4527 50.0348 25.0223 48.9781 25.8559 48.1497L23.0364 45.3124C21.6424 46.6977 20.6898 48.4648 20.2989 50.3907L24.2189 51.1865ZM25.8559 48.1497C26.6895 47.3213 27.7498 46.7584 28.9029 46.5318L28.1318 42.6068C26.2034 42.9857 24.4304 43.9272 23.0364 45.3124L25.8559 48.1497ZM28.9029 46.5318C30.0561 46.3052 31.2505 46.4252 32.3355 46.8766L33.872 43.1835C32.0575 42.4286 30.0601 42.228 28.1318 42.6068L28.9029 46.5318ZM32.3355 46.8766C33.4206 47.3281 34.3476 48.0907 34.9998 49.0683L38.3274 46.8486C37.2368 45.2137 35.6865 43.9384 33.872 43.1835L32.3355 46.8766ZM34.9998 49.0683C35.652 50.046 36 51.1948 36 52.37L40 52.37C40 50.4047 39.418 48.4835 38.3274 46.8486L34.9998 49.0683ZM36 52.3575C35.9901 53.9423 35.3536 55.4588 34.2295 56.5759L37.049 59.4132C38.9226 57.5513 39.9835 55.0238 40 52.3825L36 52.3575ZM34.2295 56.5759C33.1053 57.6931 31.5849 58.32 30 58.32L30 62.32C32.6413 62.3201 35.1755 61.2751 37.049 59.4132L34.2295 56.5759ZM30 44.01C28.3466 44.01 26.7302 44.5003 25.3554 45.4189L27.5777 48.7448C28.2947 48.2657 29.1377 48.01 30 48.01L30 44.01ZM25.3554 45.4189C23.9806 46.3375 22.9091 47.6432 22.2764 49.1708L25.9719 50.7015C26.3019 49.9048 26.8607 49.2239 27.5777 48.7448L25.3554 45.4189ZM22.2764 49.1708C21.6436 50.6984 21.4781 52.3793 21.8006 54.001L25.7238 53.2206C25.5556 52.3748 25.6419 51.4982 25.9719 50.7015L22.2764 49.1708ZM21.8006 54.001C22.1232 55.6226 22.9194 57.1123 24.0886 58.2814L26.917 55.453C26.3073 54.8432 25.892 54.0664 25.7238 53.2206L21.8006 54.001ZM24.0886 58.2814C25.2578 59.4506 26.7474 60.2468 28.3691 60.5694L29.1494 56.6462C28.3037 56.478 27.5268 56.0628 26.917 55.453L24.0886 58.2814ZM28.3691 60.5694C29.9907 60.892 31.6717 60.7264 33.1992 60.0936L31.6685 56.3981C30.8718 56.7281 29.9952 56.8145 29.1494 56.6462L28.3691 60.5694ZM33.1992 60.0936C34.7268 59.4609 36.0325 58.3894 36.9511 57.0146L33.6252 54.7923C33.1461 55.5093 32.4652 56.0681 31.6685 56.3981L33.1992 60.0936ZM36.9511 57.0146C37.8697 55.6398 38.36 54.0235 38.36 52.37L34.36 52.37C34.36 53.2323 34.1043 54.0753 33.6252 54.7923L36.9511 57.0146ZM38.36 52.37C38.36 50.1528 37.4792 48.0264 35.9114 46.4586L33.083 49.287C33.9007 50.1047 34.36 51.2137 34.36 52.37H38.36ZM35.9114 46.4586C34.3436 44.8908 32.2172 44.01 30 44.01V48.01C31.1564 48.01 32.2653 48.4694 33.083 49.287L35.9114 46.4586Z" fill="#E60000" mask="url(#path-7-inside-3)"/>
<mask id="path-9-inside-4" fill="white">
<path d="M30 16C28.4178 16 26.871 15.5308 25.5554 14.6518C24.2399 13.7727 23.2145 12.5233 22.609 11.0615C22.0035 9.59966 21.845 7.99113 22.1537 6.43928C22.4624 4.88743 23.2243 3.46197 24.3431 2.34315C25.462 1.22433 26.8874 0.462403 28.4393 0.153721C29.9911 -0.15496 31.5997 0.00346631 33.0615 0.608967C34.5233 1.21447 35.7727 2.23985 36.6518 3.55544C37.5308 4.87103 38 6.41775 38 8C38 10.1217 37.1571 12.1566 35.6569 13.6569C34.1566 15.1571 32.1217 16 30 16ZM30 1.68C28.7414 1.67805 27.5105 2.04898 26.4625 2.74597C25.4145 3.44296 24.5965 4.43477 24.1117 5.59623C23.6269 6.75769 23.497 8.03674 23.7384 9.27195C23.9799 10.5072 24.5818 11.6432 25.4683 12.5366C26.3547 13.43 27.486 14.0408 28.7193 14.2919C29.9525 14.543 31.2326 14.4232 32.3978 13.9475C33.563 13.4718 34.5612 12.6615 35.2664 11.6191C35.9715 10.5766 36.3521 9.34856 36.36 8.09C36.3653 7.25096 36.2047 6.41915 35.8876 5.64234C35.5705 4.86552 35.103 4.15902 34.512 3.5634C33.921 2.96778 33.2182 2.49478 32.4439 2.17157C31.6696 1.84836 30.8391 1.6813 30 1.68V1.68Z"/>
</mask>
<path d="M30 14C28.8133 14 27.6533 13.6481 26.6666 12.9888L24.4443 16.3147C26.0888 17.4135 28.0222 18 30 18V14ZM26.6666 12.9888C25.6799 12.3295 24.9109 11.3925 24.4567 10.2961L20.7612 11.8268C21.5181 13.6541 22.7998 15.2159 24.4443 16.3147L26.6666 12.9888ZM24.4567 10.2961C24.0026 9.19975 23.8838 7.99335 24.1153 6.82946L20.1922 6.0491C19.8063 7.98891 20.0043 9.99958 20.7612 11.8268L24.4567 10.2961ZM24.1153 6.82946C24.3468 5.66558 24.9182 4.59648 25.7574 3.75736L22.9289 0.928936C21.5304 2.32746 20.578 4.10929 20.1922 6.0491L24.1153 6.82946ZM25.7574 3.75736C26.5965 2.91825 27.6656 2.3468 28.8295 2.11529L28.0491 -1.80785C26.1093 -1.422 24.3275 -0.46959 22.9289 0.928936L25.7574 3.75736ZM28.8295 2.11529C29.9933 1.88378 31.1997 2.0026 32.2961 2.45673L33.8268 -1.23879C31.9996 -1.99567 29.9889 -2.1937 28.0491 -1.80785L28.8295 2.11529ZM32.2961 2.45673C33.3925 2.91085 34.3295 3.67989 34.9888 4.66658L38.3147 2.4443C37.2159 0.799809 35.6541 -0.481916 33.8268 -1.23879L32.2961 2.45673ZM34.9888 4.66658C35.6481 5.65328 36 6.81332 36 8H40C40 6.02219 39.4135 4.08879 38.3147 2.4443L34.9888 4.66658ZM36 8C36 9.5913 35.3679 11.1174 34.2426 12.2426L37.0711 15.0711C38.9464 13.1957 40 10.6522 40 8H36ZM34.2426 12.2426C33.1174 13.3679 31.5913 14 30 14V18C32.6522 18 35.1957 16.9464 37.0711 15.0711L34.2426 12.2426ZM30.0031 -0.319994C28.3494 -0.322557 26.7319 0.164829 25.3549 1.08065L27.5701 4.41128C28.289 3.93313 29.1335 3.67866 29.9969 3.68L30.0031 -0.319994ZM25.3549 1.08065C23.9779 1.99648 22.9031 3.29969 22.266 4.82582L25.9574 6.36664C26.29 5.56985 26.8511 4.88944 27.5701 4.41128L25.3549 1.08065ZM22.266 4.82582C21.629 6.35194 21.4583 8.03257 21.7756 9.6556L25.7013 8.88829C25.5357 8.0409 25.6248 7.16344 25.9574 6.36664L22.266 4.82582ZM21.7756 9.6556C22.0928 11.2786 22.8837 12.7713 24.0485 13.9453L26.888 11.1279C26.2799 10.515 25.8669 9.73568 25.7013 8.88829L21.7756 9.6556ZM24.0485 13.9453C25.2133 15.1192 26.6997 15.9218 28.3202 16.2517L29.1183 12.3321C28.2722 12.1599 27.4961 11.7408 26.888 11.1279L24.0485 13.9453ZM28.3202 16.2517C29.9407 16.5817 31.6227 16.4242 33.1537 15.7991L31.6419 12.0958C30.8425 12.4222 29.9643 12.5044 29.1183 12.3321L28.3202 16.2517ZM33.1537 15.7991C34.6848 15.174 35.9964 14.1094 36.923 12.7396L33.6098 10.4985C33.126 11.2136 32.4412 11.7695 31.6419 12.0958L33.1537 15.7991ZM36.923 12.7396C37.8495 11.3699 38.3496 9.75628 38.36 8.10257L34.36 8.07744C34.3546 8.94085 34.0936 9.7833 33.6098 10.4985L36.923 12.7396ZM38.36 8.10257C38.3669 7.00009 38.1559 5.90711 37.7392 4.8864L34.036 6.39827C34.2535 6.93119 34.3637 7.50184 34.36 8.07744L38.36 8.10257ZM37.7392 4.8864C37.3225 3.86569 36.7083 2.93736 35.9317 2.15473L33.0923 4.97206C33.4977 5.38067 33.8184 5.86536 34.036 6.39827L37.7392 4.8864ZM35.9317 2.15473C35.1552 1.3721 34.2317 0.750595 33.2143 0.325906L31.6735 4.01723C32.2047 4.23896 32.6868 4.56345 33.0923 4.97206L35.9317 2.15473ZM33.2143 0.325906C32.1969 -0.0987829 31.1056 -0.318285 30.0031 -0.319994L29.9969 3.68C30.5725 3.68089 31.1423 3.7955 31.6735 4.01723L33.2143 0.325906Z" fill="#E60000" mask="url(#path-9-inside-4)"/>
<mask id="path-11-inside-5" fill="white">
<path d="M8 38.09C6.41775 38.09 4.87103 37.6208 3.55544 36.7418C2.23985 35.8627 1.21447 34.6133 0.608967 33.1515C0.00346625 31.6897 -0.15496 30.0812 0.153721 28.5293C0.462403 26.9775 1.22433 25.552 2.34315 24.4332C3.46197 23.3144 4.88743 22.5524 6.43928 22.2437C7.99113 21.9351 9.59966 22.0935 11.0615 22.699C12.5233 23.3045 13.7727 24.3299 14.6518 25.6455C15.5308 26.9611 16 28.5078 16 30.09C16 32.2118 15.1571 34.2466 13.6569 35.7469C12.1566 37.2472 10.1217 38.09 8 38.09V38.09ZM8 23.73C6.74044 23.7221 5.50689 24.0884 4.45575 24.7824C3.4046 25.4764 2.5832 26.4669 2.09569 27.6283C1.60818 28.7897 1.4765 30.0698 1.71737 31.3061C1.95824 32.5424 2.56079 33.6794 3.44864 34.5729C4.33649 35.4664 5.46965 36.0761 6.70444 36.3247C7.93924 36.5734 9.22007 36.4498 10.3845 35.9696C11.549 35.4895 12.5447 34.6743 13.2453 33.6276C13.9459 32.5808 14.32 31.3496 14.32 30.09C14.3174 28.411 13.652 26.8008 12.4685 25.6098C11.2849 24.4188 9.67902 23.7432 8 23.73Z"/>
</mask>
<path d="M8 23.73L8.0157 21.7301L8.01258 21.7301L8 23.73ZM14.32 30.09L16.32 30.0901L16.32 30.087L14.32 30.09ZM8 36.09C6.81332 36.09 5.65328 35.7381 4.66658 35.0788L2.4443 38.4047C4.08879 39.5035 6.02219 40.09 8 40.09V36.09ZM4.66658 35.0788C3.67989 34.4196 2.91085 33.4825 2.45673 32.3861L-1.23879 33.9169C-0.481916 35.7441 0.799809 37.3059 2.4443 38.4047L4.66658 35.0788ZM2.45673 32.3861C2.0026 31.2898 1.88378 30.0834 2.11529 28.9195L-1.80785 28.1391C-2.1937 30.0789 -1.99567 32.0896 -1.23879 33.9169L2.45673 32.3861ZM2.11529 28.9195C2.3468 27.7556 2.91825 26.6865 3.75736 25.8474L0.928936 23.019C-0.469589 24.4175 -1.422 26.1993 -1.80785 28.1391L2.11529 28.9195ZM3.75736 25.8474C4.59648 25.0083 5.66558 24.4368 6.82946 24.2053L6.0491 20.2822C4.10929 20.668 2.32746 21.6204 0.928936 23.019L3.75736 25.8474ZM6.82946 24.2053C7.99335 23.9738 9.19975 24.0926 10.2961 24.5468L11.8268 20.8512C9.99958 20.0944 7.98891 19.8963 6.0491 20.2822L6.82946 24.2053ZM10.2961 24.5468C11.3925 25.0009 12.3295 25.7699 12.9888 26.7566L16.3147 24.5343C15.2159 22.8898 13.6541 21.6081 11.8268 20.8512L10.2961 24.5468ZM12.9888 26.7566C13.6481 27.7433 14 28.9033 14 30.09H18C18 28.1122 17.4135 26.1788 16.3147 24.5343L12.9888 26.7566ZM14 30.09C14 31.6813 13.3679 33.2075 12.2426 34.3327L15.0711 37.1611C16.9464 35.2857 18 32.7422 18 30.09H14ZM12.2426 34.3327C11.1174 35.4579 9.5913 36.09 8 36.09V40.09C10.6522 40.09 13.1957 39.0365 15.0711 37.1611L12.2426 34.3327ZM8.01258 21.7301C6.35693 21.7197 4.73547 22.2011 3.35378 23.1134L5.55771 26.4514C6.27831 25.9756 7.12395 25.7246 7.98743 25.73L8.01258 21.7301ZM3.35378 23.1134C1.97208 24.0256 0.892382 25.3276 0.251563 26.8542L3.93981 28.4024C4.27402 27.6062 4.83712 26.9272 5.55771 26.4514L3.35378 23.1134ZM0.251563 26.8542C-0.389255 28.3809 -0.562331 30.0634 -0.245721 31.6886L3.68046 30.9237C3.51534 30.0761 3.60561 29.1986 3.93981 28.4024L0.251563 26.8542ZM-0.245721 31.6886C0.0708894 33.3137 0.862926 34.8082 2.02997 35.9826L4.86731 33.1632C4.25866 32.5506 3.84559 31.7712 3.68046 30.9237L-0.245721 31.6886ZM2.02997 35.9826C3.19702 37.1571 4.68651 37.9585 6.30961 38.2854L7.09927 34.3641C6.25278 34.1936 5.47596 33.7757 4.86731 33.1632L2.02997 35.9826ZM6.30961 38.2854C7.93271 38.6122 9.61632 38.4498 11.147 37.8186L9.62211 34.1207C8.82382 34.4498 7.94577 34.5346 7.09927 34.3641L6.30961 38.2854ZM11.147 37.8186C12.6776 37.1874 13.9864 36.116 14.9074 34.7401L11.5833 32.5151C11.103 33.2327 10.4204 33.7915 9.62211 34.1207L11.147 37.8186ZM14.9074 34.7401C15.8283 33.3641 16.32 31.7458 16.32 30.0901L12.32 30.09C12.32 30.9535 12.0636 31.7975 11.5833 32.5151L14.9074 34.7401ZM16.32 30.087C16.3166 27.8807 15.4423 25.765 13.8871 24.2001L11.0498 27.0195C11.8617 27.8366 12.3182 28.9412 12.32 30.0931L16.32 30.087ZM13.8871 24.2001C12.332 22.6351 10.2219 21.7474 8.0157 21.7301L7.98431 25.73C9.13616 25.739 10.2379 26.2025 11.0498 27.0195L13.8871 24.2001Z" fill="#E60000" mask="url(#path-11-inside-5)"/>
<path d="M52.05 23.73L52.05 23.09C52.0503 23.09 52.0507 23.09 52.051 23.09C52.9655 23.0902 53.8757 23.2695 54.7288 23.6229C55.5822 23.9764 56.3528 24.4934 56.9997 25.1403C57.3224 25.463 57.6143 25.8179 57.8703 26.201C58.6385 27.3508 59.049 28.7023 59.05 30.085L52.05 23.73Z" stroke="#E60000" stroke-width="2"/>
</svg>
