<svg width="61" height="62" viewBox="0 0 61 62" fill="none" xmlns="http://www.w3.org/2000/svg">
<path d="M17.13 9.22L17.1294 9.22001C12.2279 9.22584 8.25586 13.1979 8.25002 18.0994V18.1V20.63V20.6398L8.25041 20.6496C8.25648 20.8043 8.14022 20.9356 7.98754 20.9497C7.83317 20.9432 7.71002 20.816 7.71002 20.66V18.13C7.71002 12.8833 11.9633 8.63 17.21 8.63H19.7053C19.8465 8.65602 19.9507 8.77944 19.9507 8.925C19.9507 9.07057 19.8465 9.19399 19.7053 9.22001L17.13 9.22Z" stroke="white"/>
<path d="M52.0693 20.9504L52.0565 20.9499L52.0436 20.95C51.9661 20.951 51.8914 20.9209 51.8362 20.8664C51.781 20.8119 51.75 20.7376 51.75 20.66V20.66V18.13V18.1294C51.7441 13.2279 47.7721 9.25584 42.8706 9.25H42.87H40.3747C40.2335 9.22399 40.1293 9.10057 40.1293 8.955C40.1293 8.80944 40.2335 8.68602 40.3747 8.66H42.87C48.1167 8.66 52.37 12.9133 52.37 18.16V20.6784C52.3654 20.7527 52.3324 20.8226 52.2776 20.8733C52.2212 20.9256 52.1462 20.9534 52.0693 20.9504Z" stroke="white"/>
<path d="M40.33 53.34H40.302L40.2742 53.3431C40.1597 53.356 40.0479 53.3021 39.9866 53.2046C39.9254 53.107 39.9254 52.983 39.9866 52.8854C40.0479 52.7879 40.1597 52.734 40.2742 52.7469L40.302 52.75H40.33H42.87H42.8706C47.7721 52.7442 51.7441 48.7721 51.75 43.8706V43.87V41.3747C51.776 41.2335 51.8994 41.1293 52.045 41.1293C52.1905 41.1293 52.314 41.2335 52.34 41.3747V43.8691C52.324 49.0931 48.0931 53.324 42.8691 53.34H40.33Z" stroke="white"/>
<path d="M19.6958 53.3431L19.67 53.5729V53.34H19.64H17.13C11.8833 53.34 7.63 49.0867 7.63 43.84V41.3747C7.65602 41.2335 7.77944 41.1293 7.925 41.1293C8.07057 41.1293 8.19399 41.2335 8.22001 41.3747L8.22 43.87L8.22001 43.8706C8.22584 48.7721 12.1979 52.7442 17.0994 52.75H17.1H19.64H19.668L19.6958 52.7469C19.8103 52.734 19.9221 52.7879 19.9833 52.8854C20.0446 52.983 20.0446 53.107 19.9833 53.2046C19.9221 53.3021 19.8103 53.356 19.6958 53.3431Z" stroke="white"/>
<path d="M22.6 53.249C22.5829 57.3568 25.894 60.7033 30.0016 60.73C34.1243 60.7291 37.4734 57.401 37.5 53.2784C37.4991 49.1707 34.1734 45.8387 30.0655 45.8302C25.9571 45.8216 22.6172 49.1406 22.6 53.249ZM22.6 53.249L22.1 53.2469L22.6 53.249ZM30 46.42C26.2113 46.42 23.14 49.4913 23.14 53.28C23.14 57.0687 26.2113 60.14 30 60.14C33.7887 60.14 36.86 57.0687 36.86 53.28C36.86 49.4913 33.7887 46.42 30 46.42Z" stroke="white"/>
<path d="M23.1201 8.93851L23.1201 8.93852C23.1083 12.7285 26.1679 15.8121 29.9578 15.83H29.9578C33.7477 15.8477 36.8362 12.793 36.8601 9.00316V9.00311C36.8715 7.1755 36.1542 5.41864 34.8669 4.12123C33.5796 2.82382 31.8284 2.09284 30.0008 2.09C26.2108 2.08413 23.132 5.14857 23.1201 8.93851ZM30 16.41C25.8579 16.41 22.5 13.0521 22.5 8.91C22.5 4.76787 25.8579 1.41 30 1.41C34.1421 1.41 37.5 4.76787 37.5 8.91C37.5 10.8991 36.7098 12.8068 35.3033 14.2133C33.8968 15.6198 31.9891 16.41 30 16.41Z" stroke="white"/>
<path d="M8.00394 24.1399L8.00312 24.1399C5.22467 24.1225 2.71006 25.7828 1.63465 28.3448C0.559248 30.9067 1.13546 33.8644 3.09397 35.8353C5.05248 37.8062 8.00644 38.4011 10.5751 37.3418C13.1438 36.2826 14.82 33.7785 14.82 31L14.82 30.9992C14.8142 27.2302 11.7728 24.1696 8.00394 24.1399ZM8 38.5C3.85786 38.5 0.5 35.1421 0.5 31C0.5 26.8579 3.85786 23.5 8 23.5C12.1421 23.5 15.5 26.8579 15.5 31C15.5 32.9891 14.7098 34.8968 13.3033 36.3033C11.8968 37.7098 9.98912 38.5 8 38.5Z" stroke="white"/>
<path d="M51.55 24.1392V24.2082C48.9734 24.3958 46.7018 26.0225 45.7072 28.4374C44.6486 31.0074 45.2455 33.9622 47.2186 35.9199C49.1918 37.8775 52.1512 38.451 54.7128 37.3722C57.2739 36.2936 58.9312 33.7764 58.91 30.9976C58.9032 27.2126 55.836 24.1459 52.0508 24.14L51.55 24.1392ZM52.05 38.5C47.9079 38.5 44.55 35.1421 44.55 31C44.55 26.8579 47.9079 23.5 52.05 23.5C56.1921 23.5 59.55 26.8579 59.55 31C59.55 32.9891 58.7598 34.8968 57.3533 36.3033C55.9468 37.7098 54.0391 38.5 52.05 38.5Z" stroke="white"/>
</svg>
