<svg width="61" height="61" viewBox="0 0 61 61" fill="none" xmlns="http://www.w3.org/2000/svg">
<path d="M17.21 7.72003H19.7053C19.7704 7.73208 19.83 7.7654 19.8744 7.81509C19.9235 7.87009 19.9507 7.94127 19.9507 8.01503C19.9507 8.0888 19.9235 8.15998 19.8744 8.21497C19.83 8.26466 19.7704 8.29799 19.7053 8.31003L17.13 8.31003L17.1294 8.31003C14.7753 8.31284 12.5184 9.24924 10.8538 10.9138C9.18923 12.5785 8.25283 14.8353 8.25002 17.1894V17.19V19.72V19.7298L8.25041 19.7396C8.2534 19.816 8.22617 19.8904 8.17462 19.9467C8.12589 20 8.05914 20.0331 7.98754 20.0398C7.91517 20.0366 7.8464 20.0065 7.79496 19.9551C7.74058 19.9007 7.71002 19.8269 7.71002 19.75V17.22C7.71002 14.7005 8.71091 12.2841 10.4925 10.5025C12.2741 8.72092 14.6905 7.72003 17.21 7.72003Z" stroke="#E60000"/>
<path d="M51.75 19.75V19.75V17.22V17.2194C51.7472 14.8653 50.8108 12.6084 49.1462 10.9438C47.4816 9.27921 45.2247 8.3428 42.8706 8.34H42.87H40.3748C40.3096 8.32796 40.2501 8.29463 40.2056 8.24494C40.1565 8.18995 40.1293 8.11877 40.1293 8.045C40.1293 7.97123 40.1565 7.90005 40.2056 7.84506C40.2501 7.79537 40.3096 7.76204 40.3748 7.75H42.87C45.3896 7.75 47.8059 8.75089 49.5875 10.5325C51.3691 12.3141 52.37 14.7304 52.37 17.25V19.7684C52.3678 19.8041 52.359 19.8391 52.3441 19.8716C52.3282 19.9062 52.3056 19.9374 52.2777 19.9633C52.2497 19.9892 52.2169 20.0093 52.1812 20.0226C52.1454 20.0358 52.1074 20.0418 52.0693 20.0404L52.05 20.54L52.0437 20.04C52.0053 20.0405 51.9672 20.0334 51.9316 20.019C51.896 20.0047 51.8635 19.9834 51.8362 19.9564C51.8089 19.9294 51.7872 19.8973 51.7724 19.8619C51.7576 19.8264 51.75 19.7884 51.75 19.75Z" stroke="#E60000"/>
<path d="M40.33 52.43H40.302L40.2742 52.4331C40.2322 52.4378 40.1898 52.4336 40.1495 52.4208C40.1093 52.408 40.0722 52.3868 40.0408 52.3587C40.0093 52.3305 39.9841 52.296 39.9669 52.2575C39.9496 52.219 39.9407 52.1772 39.9407 52.135C39.9407 52.0928 39.9496 52.051 39.9669 52.0125C39.9841 51.9739 40.0093 51.9395 40.0408 51.9113C40.0722 51.8832 40.1093 51.862 40.1495 51.8492C40.1898 51.8364 40.2322 51.8322 40.2742 51.8369L40.302 51.84H40.33H42.87H42.8706C45.2247 51.8372 47.4816 50.9008 49.1462 49.2362C50.8108 47.5716 51.7472 45.3147 51.75 42.9606V42.96V40.4648C51.7621 40.3996 51.7954 40.3401 51.8451 40.2956C51.9001 40.2465 51.9712 40.2193 52.045 40.2193C52.1188 40.2193 52.19 40.2465 52.2449 40.2956C52.2946 40.3401 52.328 40.3996 52.34 40.4648V42.9591C52.3323 45.4686 51.332 47.8731 49.5576 49.6476C47.7831 51.422 45.3786 52.4223 42.8691 52.43H40.33Z" stroke="#E60000"/>
<path d="M19.6958 52.4331L19.67 52.6629V52.43H19.64H17.13C14.6104 52.43 12.1941 51.4291 10.4125 49.6475C8.63089 47.8659 7.63 45.4496 7.63 42.93V40.4648C7.64205 40.3996 7.67538 40.3401 7.72506 40.2956C7.78006 40.2465 7.85124 40.2193 7.925 40.2193C7.99877 40.2193 8.06995 40.2465 8.12495 40.2956C8.17463 40.3401 8.20796 40.3996 8.22001 40.4648L8.22 42.96L8.22001 42.9606C8.22281 45.3147 9.15922 47.5716 10.8238 49.2362C12.4884 50.9008 14.7453 51.8372 17.0994 51.84H17.1H19.64H19.668L19.6958 51.8369C19.7378 51.8322 19.7803 51.8364 19.8205 51.8492C19.8607 51.862 19.8978 51.8832 19.9292 51.9113C19.9607 51.9395 19.9859 51.9739 20.0032 52.0125C20.0204 52.051 20.0293 52.0928 20.0293 52.135C20.0293 52.1772 20.0204 52.219 20.0032 52.2575C19.9859 52.296 19.9607 52.3305 19.9292 52.3587C19.8978 52.3868 19.8607 52.408 19.8205 52.4208C19.7803 52.4336 19.7378 52.4378 19.6958 52.4331Z" stroke="#E60000"/>
<path d="M30.0016 59.82C28.5307 59.8105 27.0956 59.3657 25.877 58.5418C24.658 57.7175 23.7104 56.5508 23.1537 55.1887C22.5971 53.8266 22.4562 52.3301 22.7489 50.8881C23.0416 49.446 23.7549 48.123 24.7986 47.0857C25.8423 46.0485 27.1699 45.3436 28.6137 45.0599C30.0576 44.7762 31.5531 44.9265 32.9117 45.4917C34.2703 46.0569 35.4311 47.0118 36.2476 48.2359C37.0639 49.4596 37.4997 50.8975 37.5 52.3684C37.4872 54.3489 36.6916 56.2439 35.2868 57.6399C33.882 59.0359 31.9821 59.8196 30.0016 59.82ZM30 45.51C28.6432 45.51 27.3169 45.9123 26.1888 46.6661C25.0607 47.4199 24.1814 48.4913 23.6622 49.7448C23.143 50.9983 23.0071 52.3776 23.2718 53.7083C23.5365 55.039 24.1899 56.2614 25.1493 57.2208C26.1086 58.1802 27.331 58.8335 28.6617 59.0982C29.9924 59.3629 31.3717 59.227 32.6252 58.7078C33.8787 58.1886 34.9501 57.3093 35.7039 56.1812C36.4577 55.0531 36.86 53.7268 36.86 52.37C36.86 50.5506 36.1373 48.8058 34.8508 47.5193C33.5643 46.2328 31.8194 45.51 30 45.51Z" stroke="#E60000"/>
<path d="M30 15.5C28.5166 15.5 27.0666 15.0601 25.8332 14.236C24.5999 13.4119 23.6386 12.2406 23.0709 10.8701C22.5032 9.49968 22.3547 7.99168 22.6441 6.53683C22.9335 5.08197 23.6478 3.7456 24.6967 2.6967C25.7456 1.64781 27.082 0.933503 28.5368 0.644114C29.9917 0.354725 31.4997 0.50325 32.8701 1.07091C34.2406 1.63856 35.4119 2.59986 36.236 3.83323C37.0601 5.0666 37.5 6.51664 37.5 8C37.5 9.98913 36.7098 11.8968 35.3033 13.3033C33.8968 14.7098 31.9891 15.5 30 15.5ZM30.0008 1.18C28.6434 1.1779 27.3158 1.57794 26.1856 2.32964C25.0554 3.08134 24.1732 4.151 23.6503 5.40363C23.1274 6.65625 22.9873 8.0357 23.2477 9.36786C23.5081 10.7 24.1573 11.9252 25.1133 12.8888C26.0694 13.8523 27.2894 14.5111 28.6195 14.7819C29.9496 15.0527 31.3301 14.9234 32.5868 14.4104C33.8435 13.8973 34.92 13.0235 35.6805 11.8992C36.441 10.7749 36.8515 9.45049 36.86 8.09314C36.8657 7.18825 36.6925 6.29114 36.3505 5.45335C36.0085 4.61556 35.5043 3.8536 34.8669 3.21123C34.2296 2.56886 33.4716 2.05873 32.6365 1.71015C31.8014 1.36157 30.9057 1.18141 30.0008 1.18Z" stroke="#E60000"/>
<path d="M8.00393 23.23L8.00315 23.23C6.64456 23.2215 5.31404 23.6166 4.18025 24.3651C3.04647 25.1137 2.1605 26.1821 1.63466 27.4348C1.10882 28.6875 0.966796 30.0682 1.2266 31.4017C1.4864 32.7353 2.13633 33.9616 3.09397 34.9253C4.05162 35.889 5.27386 36.5467 6.60574 36.8149C7.93761 37.0831 9.31913 36.9498 10.5751 36.4319C11.8312 35.914 12.9051 35.0347 13.6608 33.9057C14.4165 32.7767 14.82 31.4487 14.82 30.09L14.82 30.0893C14.8172 28.2784 14.0996 26.5419 12.8231 25.2574C11.5467 23.9729 9.81474 23.2443 8.00393 23.23ZM8 37.59C6.51664 37.59 5.0666 37.1502 3.83323 36.3261C2.59986 35.5019 1.63856 34.3306 1.07091 32.9602C0.50325 31.5897 0.354725 30.0817 0.644114 28.6269C0.933503 27.172 1.64781 25.8356 2.6967 24.7867C3.7456 23.7378 5.08197 23.0235 6.53683 22.7341C7.99168 22.4448 9.49968 22.5933 10.8701 23.1609C12.2406 23.7286 13.4119 24.6899 14.236 25.9233C15.0601 27.1566 15.5 28.6067 15.5 30.09C15.5 32.0792 14.7098 33.9868 13.3033 35.3933C11.8968 36.7999 9.98913 37.59 8 37.59Z" stroke="#E60000"/>
<path d="M51.55 23.2292V23.2983C50.367 23.3848 49.2235 23.7769 48.2332 24.44C47.104 25.1962 46.2248 26.2708 45.7072 27.5274C45.1896 28.7841 45.0569 30.1661 45.326 31.4983C45.5951 32.8305 46.2538 34.0527 47.2186 35.0099C48.1834 35.9671 49.4108 36.6162 50.745 36.8747C52.0793 37.1333 53.4602 36.9897 54.7128 36.4622C55.9653 35.9347 57.0329 35.0471 57.7802 33.9119C58.5271 32.7771 58.9204 31.4462 58.91 30.0877C58.9067 28.2699 58.1832 26.5276 56.8978 25.2422C55.6121 23.9565 53.8691 23.2329 52.0508 23.23L51.55 23.2292ZM52.05 37.59C50.5666 37.59 49.1166 37.1502 47.8832 36.3261C46.6498 35.5019 45.6886 34.3306 45.1209 32.9602C44.5532 31.5897 44.4047 30.0817 44.6941 28.6269C44.9835 27.172 45.6978 25.8356 46.7467 24.7867C47.7956 23.7378 49.132 23.0235 50.5868 22.7341C52.0417 22.4448 53.5497 22.5933 54.9201 23.1609C56.2906 23.7286 57.4619 24.6899 58.286 25.9233C59.1101 27.1566 59.55 28.6067 59.55 30.09C59.55 32.0792 58.7598 33.9868 57.3533 35.3933C55.9468 36.7999 54.0391 37.59 52.05 37.59Z" stroke="#E60000"/>
</svg>
